<?xml version="1.0" encoding="UTF-8" standalone="no"?>
<!-- Created with Inkscape (http://www.inkscape.org/) -->

<svg
   xmlns:osb="http://www.openswatchbook.org/uri/2009/osb"
   xmlns:dc="http://purl.org/dc/elements/1.1/"
   xmlns:cc="http://creativecommons.org/ns#"
   xmlns:rdf="http://www.w3.org/1999/02/22-rdf-syntax-ns#"
   xmlns:svg="http://www.w3.org/2000/svg"
   xmlns="http://www.w3.org/2000/svg"
   xmlns:sodipodi="http://sodipodi.sourceforge.net/DTD/sodipodi-0.dtd"
   xmlns:inkscape="http://www.inkscape.org/namespaces/inkscape"
   width="210mm"
   height="297mm"
   viewBox="0 0 210 297"
   version="1.1"
   id="svg8"
   inkscape:version="0.92.4 (5da689c313, 2019-01-14)"
   sodipodi:docname="avatar_elements.svg">
  <defs
     id="defs2">
    <linearGradient
       id="linearGradient831"
       osb:paint="solid">
      <stop
         style="stop-color:#ffffff;stop-opacity:1;"
         offset="0"
         id="stop829" />
    </linearGradient>
  </defs>
  <sodipodi:namedview
     id="base"
     pagecolor="#ffffff"
     bordercolor="#666666"
     borderopacity="1.0"
     inkscape:pageopacity="0.0"
     inkscape:pageshadow="2"
     inkscape:zoom="0.35"
     inkscape:cx="411.28425"
     inkscape:cy="965.42399"
     inkscape:document-units="mm"
     inkscape:current-layer="layer1"
     showgrid="false"
     inkscape:window-width="1920"
     inkscape:window-height="1001"
     inkscape:window-x="-9"
     inkscape:window-y="-9"
     inkscape:window-maximized="1" />
  <metadata
     id="metadata5">
    <rdf:RDF>
      <cc:Work
         rdf:about="">
        <dc:format>image/svg+xml</dc:format>
        <dc:type
           rdf:resource="http://purl.org/dc/dcmitype/StillImage" />
        <dc:title></dc:title>
      </cc:Work>
    </rdf:RDF>
  </metadata>
  <g
     inkscape:label="Layer 1"
     inkscape:groupmode="layer"
     id="layer1">
    <path
       style="fill:none;fill-rule:evenodd;stroke:#de6b00;stroke-width:1.63659132;stroke-miterlimit:4;stroke-dasharray:none;stroke-opacity:1"
       d="m 33.007695,38.582571 c 0.162288,-0.589232 0.911362,-0.08169 1.02499,0.257721 0.307926,0.919774 -0.703798,1.659112 -1.564459,1.70096 -1.539519,0.07486 -2.604518,-1.365366 -2.535503,-2.731845 0.101282,-2.005362 2.160946,-3.33428 4.153909,-3.144199 2.656306,0.253348 4.381659,2.765932 4.046016,5.205968 -0.422371,3.070535 -3.629619,5.041993 -6.743358,4.587439 -3.771155,-0.550527 -6.174322,-4.170438 -5.55653,-7.680092 0.728047,-4.136006 5.100328,-6.757845 9.332808,-6.030678 4.886566,0.839542 7.97219,5.576092 7.067043,10.154215 -1.028484,5.201954 -6.571825,8.476963 -11.922258,7.473917 -6.002377,-1.125266 -9.772427,-6.982272 -8.577556,-12.628338 1.326533,-6.268203 8.043723,-10.197718 14.511708,-8.917157"
       id="path840"
       inkscape:connector-curvature="0" />
    <path
       style="fill:none;fill-rule:evenodd;stroke:#de6b00;stroke-width:1.63659143;stroke-miterlimit:4;stroke-dasharray:none;stroke-opacity:1"
       d="m 62.700376,40.210739 c 0.616698,0.155061 0.0855,0.870774 -0.269734,0.979341 -0.962648,0.294212 -1.736448,-0.672453 -1.780247,-1.494782 -0.07835,-1.470955 1.42901,-2.488522 2.859184,-2.422581 2.098839,0.09677 3.489702,2.064704 3.29076,3.968907 -0.265157,2.538003 -2.894861,4.186513 -5.448633,3.86582 -3.213663,-0.40356 -5.277017,-3.467969 -4.801274,-6.443031 0.576189,-3.603199 4.364834,-5.899336 8.038084,-5.309059 4.328798,0.695622 7.072848,4.873176 6.311786,8.917152 -0.878676,4.668937 -5.83601,7.617135 -10.627533,6.752302 -5.444433,-0.98268 -8.8721,-6.27914 -7.8223,-11.391279 1.177719,-5.735049 7.307738,-9.337192 13.216984,-8.195537 6.560383,1.267453 10.673064,7.68548 9.332812,13.865401"
       id="path840-1"
       inkscape:connector-curvature="0" />
    <path
       style="fill:none;fill-rule:evenodd;stroke:#de6b00;stroke-width:1.63659143;stroke-miterlimit:4;stroke-dasharray:none;stroke-opacity:1"
       d="m 46.193037,61.076778 c -0.162289,0.58923 -0.911363,0.08169 -1.024991,-0.257721 -0.307926,-0.919776 0.703798,-1.659113 1.564459,-1.700961 1.539519,-0.07486 2.604518,1.365366 2.535504,2.731844 -0.101282,2.005363 -2.160946,3.334282 -4.153909,3.1442 -2.656307,-0.253348 -4.381659,-2.765932 -4.046017,-5.205968 0.422372,-3.070535 3.62962,-5.041993 6.743359,-4.587438 3.771155,0.550526 6.174322,4.170436 5.55653,7.680091 -0.728047,4.136006 -5.100329,6.757845 -9.332809,6.030678 -4.886566,-0.839542 -7.972189,-5.576092 -7.067043,-10.154215 1.028485,-5.201954 6.571825,-8.476963 11.922258,-7.473917 6.002378,1.125266 9.772427,6.982272 8.577557,12.628338 -1.326533,6.268203 -8.043724,10.197716 -14.511709,8.917157"
       id="path840-6"
       inkscape:connector-curvature="0" />
    <path
       transform="matrix(0.60553345,0,0,0.5785648,15.959089,30.177881)"
       style="fill:none;fill-rule:evenodd;stroke:#008400;stroke-width:2.06500006;stroke-miterlimit:4;stroke-dasharray:none;stroke-opacity:1"
       d="m 55.057529,177.26324 c -0.482416,0.99164 -1.574711,-0.16105 -1.648162,-0.8018 -0.199047,-1.73642 1.777081,-2.70927 3.25178,-2.49452 2.63789,0.38415 3.938266,3.29884 3.340869,5.70175 -0.876705,3.52637 -4.837754,5.19403 -8.151721,4.18722 -4.416996,-1.34192 -6.46063,-6.3823 -5.033576,-10.60169 1.7958,-5.30967 7.929421,-7.73271 13.051662,-5.87993 6.20372,2.24396 9.00794,9.47797 6.726284,15.50163 -2.688853,7.09869 -11.027401,10.28515 -17.951604,7.57264 -7.994267,-3.1317 -11.563674,-12.57742 -8.418991,-20.40157 3.573189,-8.8903 14.127865,-12.84313 22.851545,-9.26535 9.786651,4.01373 14.123245,15.67861 10.111698,25.30152 -4.453577,10.68325 -17.229585,15.40387 -27.751487,10.95805"
       id="path875" />
    <path
       style="fill:none;stroke:#008400;stroke-width:1.22226429;stroke-linecap:butt;stroke-linejoin:miter;stroke-miterlimit:4;stroke-dasharray:none;stroke-opacity:1"
       d="m 32.466833,150.67357 c 13.270933,0.30926 13.594615,0.30926 13.594615,0.30926 l -0.647363,14.22621 H 17.901176 V 154.07548 L 36.998371,114.4895 h 26.218185 l 17.802469,38.96746 -0.323688,12.06135 -24.923451,-0.30927 -0.323683,-13.60768 h 11.976208"
       id="path877"
       inkscape:connector-curvature="0" />
    <path
       style="fill:none;stroke:#008400;stroke-width:1.22226429;stroke-linecap:butt;stroke-linejoin:miter;stroke-miterlimit:4;stroke-dasharray:none;stroke-opacity:1"
       d="M 55.448203,158.71447 C 66.777048,158.4052 66.777048,158.4052 66.777048,158.4052"
       id="path879"
       inkscape:connector-curvature="0" />
    <path
       style="fill:none;stroke:#008400;stroke-width:1.22226429;stroke-linecap:butt;stroke-linejoin:miter;stroke-miterlimit:4;stroke-dasharray:none;stroke-opacity:1"
       d="M 45.414085,158.09594 31.81947,157.78667"
       id="path881"
       inkscape:connector-curvature="0" />
    <path
       style="fill:none;stroke:#f70000;stroke-width:1.2169373;stroke-linecap:butt;stroke-linejoin:miter;stroke-miterlimit:4;stroke-dasharray:none;stroke-opacity:1"
       d="M 91.537841,78.715773 C 80.733725,71.283241 99.07893,58.566573 90.823208,47.062805"
       id="path4665"
       inkscape:connector-curvature="0"
       sodipodi:nodetypes="cc" />
    <path
       style="fill:none;stroke:#f70000;stroke-width:1.2169373;stroke-linecap:butt;stroke-linejoin:miter;stroke-miterlimit:4;stroke-dasharray:none;stroke-opacity:1"
       d="m 90.823208,47.062805 c 4.251729,0.454156 9.967162,2.337457 11.148262,7.193857 1.49811,6.159917 -1.980394,10.636299 1.28634,16.218873 3.46829,5.927043 14.52389,6.63755 19.58092,1.438775 4.39399,-4.517156 2.63086,-12.503208 -0.57171,-18.180838 -1.63673,-2.901642 -5.30229,-2.879852 -6.71754,-7.717046 -1.82995,-6.2546 0.32178,-8.18427 1.14341,-12.818144 1.25424,-7.073685 -1.32691,-6.89514 -5.57413,-9.940602 0.63942,4.704073 0.87195,5.019589 -3.43024,8.894223 -2.20879,1.989277 -3.27712,1.17772 -6.0029,5.755085 -2.280586,3.829745 -1.53458,6.145444 -0.14293,9.417411"
       id="path4667"
       inkscape:connector-curvature="0"
       sodipodi:nodetypes="csssssscssc" />
    <path
       transform="matrix(0.98016362,0,0,-0.83817759,-56.301293,-5.1863143)"
       style="fill:none;fill-rule:evenodd;stroke:#f70000;stroke-width:1.3426131;stroke-miterlimit:4;stroke-dasharray:none;stroke-opacity:1"
       d="m 173.19066,-83.494675 c 0.24285,-1.008853 1.47973,-0.170372 1.67678,0.403637 0.534,1.555529 -1.08538,2.849125 -2.48406,2.949923 -2.5019,0.180303 -4.28625,-2.235402 -4.22306,-4.56447 0.0927,-3.418002 3.39578,-5.751448 6.64489,-5.496209 4.33055,0.340195 7.22773,4.55914 6.76935,8.725303 -0.57683,5.242692 -5.72376,8.709581 -10.80572,8.042495 -6.15494,-0.80793 -10.19461,-6.889051 -9.31564,-12.886136 0.30984,-2.114005 1.18865,-4.128338 2.50671,-5.808092"
       id="path4671" />
    <path
       style="fill:none;stroke:#f70000;stroke-width:1.2169373;stroke-linecap:butt;stroke-linejoin:miter;stroke-miterlimit:4;stroke-dasharray:none;stroke-opacity:1"
       d="m 110.97583,56.480217 c -1.93509,-2.258222 -2.45835,-4.268647 -4.14486,-10.725386 -1.24144,-4.752779 2.57618,-6.914148 6.28876,-12.948941"
       id="path4673"
       inkscape:connector-curvature="0"
       sodipodi:nodetypes="csc" />
    <path
       style="fill:none;stroke:#f70000;stroke-width:1.2169373;stroke-linecap:butt;stroke-linejoin:miter;stroke-miterlimit:4;stroke-dasharray:none;stroke-opacity:1"
       d="m 101.54269,47.324399 c 1.77118,2.380009 2.98925,4.506924 4.00194,6.53987"
       id="path4675"
       inkscape:connector-curvature="0"
       sodipodi:nodetypes="cc" />
    <path
       style="fill:none;stroke:#f70000;stroke-width:1.2169373;stroke-linecap:butt;stroke-linejoin:miter;stroke-miterlimit:4;stroke-dasharray:none;stroke-opacity:1"
       d="m 122.6958,54.256661 c -0.70881,-3.582879 -1.65642,-6.654872 -1e-5,-10.856183 2.29577,-4.747941 6.57857,-6.586412 10.71949,-8.632627 -1.98994,6.356499 -0.29685,10.95233 1.14341,14.518509 2.31242,5.82447 8.07776,14.359384 5.43121,20.665989 -1.74214,4.151441 -3.79097,8.380807 -7.71803,10.594587"
       id="path4677"
       inkscape:connector-curvature="0"
       sodipodi:nodetypes="ccccsc" />
    <path
       style="fill:none;stroke:#f70000;stroke-width:1.2169373;stroke-linecap:butt;stroke-linejoin:miter;stroke-miterlimit:4;stroke-dasharray:none;stroke-opacity:1"
       d="m 95.825629,53.864269 c 5.252351,8.10201 -7.019919,17.653076 4.430721,25.636286 10.52557,7.338273 25.14653,1.435431 26.58431,-1.307973 8.53106,-16.277908 0.47849,-19.852855 2.28682,-32.176156"
       id="path4679"
       inkscape:connector-curvature="0"
       sodipodi:nodetypes="cssc" />
    <path
       style="fill:#00ffff;fill-opacity:0;stroke:#000085;stroke-width:1.2169373;stroke-miterlimit:4;stroke-dasharray:none;stroke-opacity:1"
       d="m 139.60534,145.41603 a 28.483952,26.287567 0 0 1 -28.48396,26.28757 28.483952,26.287567 0 0 1 -28.483948,-26.28757 28.483952,26.287567 0 0 1 28.483948,-26.28757 28.483952,26.287567 0 0 1 28.48396,26.28757 z"
       id="path4681" />
    <path
       style="fill:none;stroke:#000085;stroke-width:1.22226429;stroke-linecap:butt;stroke-linejoin:miter;stroke-miterlimit:4;stroke-dasharray:none;stroke-opacity:1"
       d="m 82.475594,146.34385 c 19.688236,10.5188 34.832926,-11.74954 57.129746,-0.4639"
       id="path4683"
       inkscape:connector-curvature="0"
       sodipodi:nodetypes="cc" />
    <path
       style="fill:none;stroke:#000085;stroke-width:1.22226429;stroke-linecap:butt;stroke-linejoin:miter;stroke-miterlimit:4;stroke-dasharray:none;stroke-opacity:1"
       d="m 84.741361,155.15791 c 12.458899,9.5446 35.110499,-8.84415 52.760049,-0.30926"
       id="path4685"
       inkscape:connector-curvature="0"
       sodipodi:nodetypes="cc" />
    <path
       style="fill:none;stroke:#000085;stroke-width:1.22226429;stroke-linecap:butt;stroke-linejoin:miter;stroke-miterlimit:4;stroke-dasharray:none;stroke-opacity:1"
       d="m 91.862349,164.74514 c 10.695991,6.38657 32.948651,-6.51366 38.518071,-0.30926"
       id="path4687"
       inkscape:connector-curvature="0"
       sodipodi:nodetypes="cc" />
    <path
       transform="matrix(0,0.80908845,0.83979461,0,-35.770882,247.96751)"
       style="fill:none;fill-rule:evenodd;stroke:#000085;stroke-width:1.43611932;stroke-miterlimit:4;stroke-dasharray:none;stroke-opacity:1"
       d="m -142.91748,171.40238 c -0.12862,0.17562 -0.38537,-0.0111 -0.45832,-0.14048 -0.2651,-0.47022 0.19225,-0.98279 0.62259,-1.12119 0.98427,-0.31656 1.88034,0.56363 2.06617,1.47128 0.34212,1.67099 -1.12483,3.08101 -2.68653,3.29325 -2.53234,0.34416 -4.58583,-1.87578 -4.80244,-4.26835 -0.32316,-3.56931 2.81646,-6.39521 6.21673,-6.59375 4.78234,-0.27922 8.50939,3.94692 8.66716,8.53169 0.21237,6.17168 -5.26714,10.92847 -11.21321,11.02268 -7.73744,0.12259 -13.65252,-6.77718 -13.66031,-14.2613 -0.001,-1.23577 0.14687,-2.47099 0.43597,-3.67235"
       id="path4697" />
    <path
       transform="matrix(-0.60553345,0,0,0.5785648,15.959089,30.177881)"
       style="fill:none;fill-rule:evenodd;stroke:#000085;stroke-width:2;stroke-miterlimit:4;stroke-dasharray:none;stroke-opacity:1"
       d="m -130.18853,188.92032 c 0.54162,-0.39198 1.13679,0.31079 1.23419,0.79124 0.26176,1.29111 -1.06692,2.23301 -2.21932,2.26548 -2.16185,0.0609 -3.57943,-2.1063 -3.46149,-4.09631 0.18711,-3.15729 3.36637,-5.13695 6.33043,-4.8056 4.26785,0.47709 6.87981,4.81329 6.28403,8.87103 -0.80516,5.48387 -6.42533,8.78983 -11.68453,7.88597 -6.79734,-1.1682 -10.85333,-8.18699 -9.60277,-14.74651 1.56362,-8.20169 10.08647,-13.05951 18.03817,-11.42734 9.69143,1.98926 15.3996,12.11439 13.35372,21.54442 -0.65629,3.02503 -2.04597,5.87357 -3.9998,8.27225"
       id="path4701" />
    <path
       transform="matrix(0,-0.52161106,-0.5604963,0,217.90506,37.647399)"
       style="fill:none;fill-rule:evenodd;stroke:#000085;stroke-width:2.18935061;stroke-miterlimit:4;stroke-dasharray:none;stroke-opacity:1"
       d="m -179.40653,168.58597 c 0.16185,-0.19349 0.44485,0.0416 0.51956,0.19666 0.27149,0.56357 -0.29567,1.12222 -0.80367,1.25018 -1.16191,0.29265 -2.13251,-0.79212 -2.2797,-1.85566 -0.27098,-1.95798 1.53072,-3.47918 3.35261,-3.60811 2.95427,-0.20907 5.16344,2.51144 5.23544,5.29454 0.10742,4.15193 -3.73432,7.18576 -7.68145,7.16166 -5.55149,-0.0339 -9.54641,-5.19939 -9.38679,-10.51333 0.21487,-7.15323 6.9067,-12.2455 13.7902,-11.91081 6.13236,0.29817 11.45068,4.52646 13.62783,10.18713"
       id="path4703" />
    <path
       style="fill:#00ffff;fill-opacity:0;stroke:#000085;stroke-width:0.84556508;stroke-miterlimit:4;stroke-dasharray:none;stroke-opacity:1"
       d="m 83.707105,146.23089 -0.429144,-0.21646 v -0.82391 c 0,-0.80804 0.127469,-0.99325 0.281092,-0.40843 0.04266,0.16242 0.228608,0.58616 0.413211,0.94166 0.184605,0.3555 0.335644,0.66592 0.335644,0.68982 0,0.0849 -0.177232,0.031 -0.600803,-0.18268 z"
       id="path4705"
       inkscape:connector-curvature="0" />
    <path
       style="fill:#00ffff;fill-opacity:0;stroke:#000085;stroke-width:2;stroke-miterlimit:4;stroke-dasharray:none;stroke-opacity:1"
       d="M 13.607142,16.541666 H 145.89881 V 194.19049 H 13.607142 Z"
       id="rect4710" />
  </g>
</svg>
