<?xml version="1.0" encoding="UTF-8" standalone="no"?>
<!-- Created with Inkscape (http://www.inkscape.org/) -->

<svg
   xmlns:osb="http://www.openswatchbook.org/uri/2009/osb"
   xmlns:dc="http://purl.org/dc/elements/1.1/"
   xmlns:cc="http://creativecommons.org/ns#"
   xmlns:rdf="http://www.w3.org/1999/02/22-rdf-syntax-ns#"
   xmlns:svg="http://www.w3.org/2000/svg"
   xmlns="http://www.w3.org/2000/svg"
   xmlns:sodipodi="http://sodipodi.sourceforge.net/DTD/sodipodi-0.dtd"
   xmlns:inkscape="http://www.inkscape.org/namespaces/inkscape"
   width="210mm"
   height="297mm"
   viewBox="0 0 210 297"
   version="1.1"
   id="svg8"
   inkscape:version="0.92.4 (5da689c313, 2019-01-14)"
   sodipodi:docname="avatar_elements.svg">
  <defs
     id="defs2">
    <linearGradient
       id="linearGradient831"
       osb:paint="solid">
      <stop
         style="stop-color:#ffffff;stop-opacity:1;"
         offset="0"
         id="stop829" />
    </linearGradient>
  </defs>
  <sodipodi:namedview
     id="base"
     pagecolor="#ffffff"
     bordercolor="#666666"
     borderopacity="1.0"
     inkscape:pageopacity="0.0"
     inkscape:pageshadow="2"
     inkscape:zoom="0.35"
     inkscape:cx="411.28425"
     inkscape:cy="965.42399"
     inkscape:document-units="mm"
     inkscape:current-layer="layer1"
     showgrid="false"
     inkscape:window-width="1920"
     inkscape:window-height="1001"
     inkscape:window-x="-9"
     inkscape:window-y="-9"
     inkscape:window-maximized="1" />
  <metadata
     id="metadata5">
    <rdf:RDF>
      <cc:Work
         rdf:about="">
        <dc:format>image/svg+xml</dc:format>
        <dc:type
           rdf:resource="http://purl.org/dc/dcmitype/StillImage" />
        <dc:title></dc:title>
      </cc:Work>
    </rdf:RDF>
  </metadata>
  <g
     inkscape:label="Layer 1"
     inkscape:groupmode="layer"
     id="layer1">
    <path
       style="fill:none;fill-rule:evenodd;stroke:#de6b00;stroke-width:2.7650001;stroke-miterlimit:4;stroke-dasharray:none;stroke-opacity:1"
       d="m 25.657875,39.352177 c 0.268009,-1.018436 1.505057,-0.14119 1.692707,0.445449 0.50852,1.589752 -1.162279,2.867634 -2.583605,2.939965 -2.542418,0.129382 -4.301197,-2.359919 -4.187223,-4.721761 0.167261,-3.466098 3.568665,-5.76302 6.859917,-5.434481 4.386721,0.437891 7.236031,4.780678 6.681739,8.998072 -0.69752,5.307159 -5.994086,8.714657 -11.136228,7.928998 -6.227823,-0.951539 -10.1965,-7.208246 -9.176256,-13.274384 1.202323,-7.148735 8.422868,-11.68036 15.41254,-10.423514 8.069853,1.451077 13.165564,9.6378 11.670772,17.550696 C 39.193761,52.352351 30.039286,58.012926 21.203386,56.279247 11.290842,54.33432 5.064845,44.210983 7.038098,34.452239 9.2287829,23.618184 20.321796,16.826352 31.003262,19.039693"
       id="path840" />
    <path
       transform="rotate(90,94.078932,38.283148)"
       style="fill:none;fill-rule:evenodd;stroke:#de6b00;stroke-width:2.76500034;stroke-miterlimit:4;stroke-dasharray:none;stroke-opacity:1"
       d="m 97.962112,57.668629 c 0.26801,-1.018436 1.505058,-0.14119 1.692707,0.445449 0.508521,1.589753 -1.162278,2.867634 -2.583604,2.939965 -2.542419,0.129382 -4.301197,-2.359919 -4.187224,-4.721761 0.167261,-3.466098 3.568665,-5.76302 6.859917,-5.434481 4.386722,0.437891 7.236032,4.780679 6.681742,8.998072 -0.69752,5.30716 -5.99409,8.714657 -11.136231,7.928998 -6.227823,-0.951539 -10.1965,-7.208246 -9.176256,-13.274384 1.202323,-7.148735 8.422869,-11.68036 15.412537,-10.423514 8.06986,1.451077 13.16557,9.6378 11.67078,17.550696 C 111.498,70.668803 102.34352,76.329378 93.507624,74.595699 83.595079,72.650772 77.369082,62.527435 79.342335,52.768691 81.53302,41.934636 92.626033,35.142804 103.3075,37.356145"
       id="path840-1" />
    <path
       transform="scale(-1)"
       style="fill:none;fill-rule:evenodd;stroke:#de6b00;stroke-width:2.76500034;stroke-miterlimit:4;stroke-dasharray:none;stroke-opacity:1"
       d="m -47.432629,-78.231499 c 0.26801,-1.018435 1.505058,-0.141189 1.692707,0.445449 0.50852,1.589753 -1.162278,2.867635 -2.583604,2.939965 -2.542419,0.129382 -4.301197,-2.359919 -4.187224,-4.72176 0.167261,-3.466098 3.568665,-5.763021 6.859917,-5.434482 4.386721,0.437891 7.236031,4.780679 6.681739,8.998073 -0.69752,5.307159 -5.994086,8.714656 -11.136228,7.928997 -6.227823,-0.951538 -10.1965,-7.208245 -9.176256,-13.274384 1.202323,-7.148734 8.422869,-11.680359 15.41254,-10.423514 8.069853,1.451078 13.165564,9.637801 11.670772,17.550696 -1.698477,8.991135 -10.852951,14.65171 -19.688851,12.91803 -9.912545,-1.944926 -16.138542,-12.068263 -14.165289,-21.827007 2.190685,-10.834056 13.283698,-17.625884 23.965164,-15.412547"
       id="path840-6" />
    <path
       sodipodi:type="spiral"
       style="fill:none;fill-rule:evenodd;stroke:#008400;stroke-width:2.06500006;stroke-miterlimit:4;stroke-dasharray:none;stroke-opacity:1"
       id="path875"
       sodipodi:cx="55.057529"
       sodipodi:cy="177.26324"
       sodipodi:expansion="1"
       sodipodi:revolution="3"
       sodipodi:radius="21.994188"
       sodipodi:argument="-16.825981"
       sodipodi:t0="0"
       d="m 55.057529,177.26324 c -0.482416,0.99164 -1.574711,-0.16105 -1.648162,-0.8018 -0.199047,-1.73642 1.777081,-2.70927 3.25178,-2.49452 2.63789,0.38415 3.938266,3.29884 3.340869,5.70175 -0.876705,3.52637 -4.837754,5.19403 -8.151721,4.18722 -4.416996,-1.34192 -6.46063,-6.3823 -5.033576,-10.60169 1.7958,-5.30967 7.929421,-7.73271 13.051662,-5.87993 6.20372,2.24396 9.00794,9.47797 6.726284,15.50163 -2.688853,7.09869 -11.027401,10.28515 -17.951604,7.57264 -7.994267,-3.1317 -11.563674,-12.57742 -8.418991,-20.40157 3.573189,-8.8903 14.127865,-12.84313 22.851545,-9.26535 9.786651,4.01373 14.123245,15.67861 10.111698,25.30152 -4.453577,10.68325 -17.229585,15.40387 -27.751487,10.95805" />
    <path
       style="fill:none;stroke:#008400;stroke-width:2.06500006;stroke-linecap:butt;stroke-linejoin:miter;stroke-miterlimit:4;stroke-dasharray:none;stroke-opacity:1"
       d="m 27.261491,208.26652 c 21.916102,0.53453 22.450642,0.53453 22.450642,0.53453 l -1.069078,24.5888 H 3.2072346 V 214.14644 L 34.745038,145.72545 h 43.297665 l 29.399647,67.35192 -0.53455,20.84702 -41.159496,-0.53454 -0.534541,-23.51972 h 19.777946"
       id="path877"
       inkscape:connector-curvature="0" />
    <path
       style="fill:none;stroke:#008400;stroke-width:2.06500006;stroke-linecap:butt;stroke-linejoin:miter;stroke-miterlimit:4;stroke-dasharray:none;stroke-opacity:1"
       d="M 65.213763,222.16453 C 83.92263,221.62999 83.92263,221.62999 83.92263,221.62999"
       id="path879"
       inkscape:connector-curvature="0" />
    <path
       style="fill:none;stroke:#008400;stroke-width:2.06500006;stroke-linecap:butt;stroke-linejoin:miter;stroke-miterlimit:4;stroke-dasharray:none;stroke-opacity:1"
       d="M 48.643055,221.09545 26.192413,220.56091"
       id="path881"
       inkscape:connector-curvature="0" />
    <path
       style="fill:none;stroke:#f70000;stroke-width:2.056;stroke-linecap:butt;stroke-linejoin:miter;stroke-miterlimit:4;stroke-dasharray:none;stroke-opacity:1"
       d="M 122.31669,108.719 C 104.47438,95.872501 134.77032,73.892824 121.13652,54.00954"
       id="path4665"
       inkscape:connector-curvature="0"
       sodipodi:nodetypes="cc" />
    <path
       style="fill:none;stroke:#f70000;stroke-width:2.056;stroke-linecap:butt;stroke-linejoin:miter;stroke-miterlimit:4;stroke-dasharray:none;stroke-opacity:1"
       d="m 121.13652,54.00954 c 7.02146,0.78497 16.46014,4.040096 18.41064,12.433969 2.47404,10.646893 -3.27049,18.383938 2.12431,28.032942 5.72767,10.244389 23.98529,11.472439 32.33665,2.4868 7.25639,-7.80752 4.3447,-21.610731 -0.94414,-31.424031 -2.70295,-5.015241 -8.7564,-4.977578 -11.0936,-13.338257 -3.02204,-10.810543 0.5314,-14.145813 1.88828,-22.15507 2.07129,-12.226262 -2.19131,-11.917663 -9.20533,-17.181484 1.05597,8.130589 1.43997,8.675932 -5.66482,15.372906 -3.64767,3.438297 -5.41195,2.03559 -9.91341,9.947175 -3.76624,6.619388 -2.53426,10.621877 -0.23604,16.277194"
       id="path4667"
       inkscape:connector-curvature="0"
       sodipodi:nodetypes="csssssscssc" />
    <path
       sodipodi:type="spiral"
       style="fill:none;fill-rule:evenodd;stroke:#f70000;stroke-width:1.34261308;stroke-miterlimit:4;stroke-dasharray:none;stroke-opacity:1"
       id="path4671"
       sodipodi:cx="173.19066"
       sodipodi:cy="-83.494675"
       sodipodi:expansion="1"
       sodipodi:revolution="1.8320848"
       sodipodi:radius="12.639023"
       sodipodi:argument="-13.90094"
       sodipodi:t0="0"
       d="m 173.19066,-83.494675 c 0.24285,-1.008853 1.47973,-0.170372 1.67678,0.403637 0.534,1.555529 -1.08538,2.849125 -2.48406,2.949923 -2.5019,0.180303 -4.28625,-2.235402 -4.22306,-4.56447 0.0927,-3.418002 3.39578,-5.751448 6.64489,-5.496209 4.33055,0.340195 7.22773,4.55914 6.76935,8.725303 -0.57683,5.242692 -5.72376,8.709581 -10.80572,8.042495 -6.15494,-0.80793 -10.19461,-6.889051 -9.31564,-12.886136 0.30984,-2.114005 1.18865,-4.128338 2.50671,-5.808092"
       transform="matrix(1.6186779,0,0,-1.4487186,-121.83024,-36.298613)" />
    <path
       style="fill:none;stroke:#f70000;stroke-width:2.056;stroke-linecap:butt;stroke-linejoin:miter;stroke-miterlimit:4;stroke-dasharray:none;stroke-opacity:1"
       d="m 154.41729,70.286735 c -3.19567,-3.903144 -4.0598,-7.377992 -6.84497,-18.537916 -2.05016,-8.214775 4.25439,-11.950517 10.38549,-22.381143"
       id="path4673"
       inkscape:connector-curvature="0"
       sodipodi:nodetypes="csc" />
    <path
       style="fill:none;stroke:#f70000;stroke-width:2.056;stroke-linecap:butt;stroke-linejoin:miter;stroke-miterlimit:4;stroke-dasharray:none;stroke-opacity:1"
       d="m 138.83906,54.461684 c 2.925,4.113643 4.93655,7.789833 6.60895,11.303608"
       id="path4675"
       inkscape:connector-curvature="0"
       sodipodi:nodetypes="cc" />
    <path
       style="fill:none;stroke:#f70000;stroke-width:2.056;stroke-linecap:butt;stroke-linejoin:miter;stroke-miterlimit:4;stroke-dasharray:none;stroke-opacity:1"
       d="m 173.77208,66.443508 c -1.17055,-6.192702 -2.73547,-11.50238 -10e-6,-18.763988 3.79131,-8.206412 10.86408,-11.384052 17.70255,-14.920761 -3.28625,10.986668 -0.49023,18.93017 1.88827,25.094007 3.81882,10.0671 13.3399,24.818972 8.9693,35.719402 -2.87704,7.175412 -6.26055,14.485512 -12.74584,18.311842"
       id="path4677"
       inkscape:connector-curvature="0"
       sodipodi:nodetypes="ccccsc" />
    <path
       style="fill:none;stroke:#f70000;stroke-width:2.056;stroke-linecap:butt;stroke-linejoin:miter;stroke-miterlimit:4;stroke-dasharray:none;stroke-opacity:1"
       d="m 129.3977,65.765292 c 8.67392,14.003634 -11.59295,30.511839 7.31706,44.310138 17.38231,12.68358 41.52789,2.48102 43.9023,-2.26072 14.08849,-28.134978 0.79019,-34.313971 3.77654,-55.613747"
       id="path4679"
       inkscape:connector-curvature="0"
       sodipodi:nodetypes="cssc" />
    <ellipse
       style="fill:#00ffff;fill-opacity:0;stroke:#000085;stroke-width:2.056;stroke-miterlimit:4;stroke-dasharray:none;stroke-opacity:1"
       id="path4681"
       cx="157.15446"
       cy="199.17935"
       rx="47.039436"
       ry="45.435822" />
    <path
       style="fill:none;stroke:#000085;stroke-width:2.06500006;stroke-linecap:butt;stroke-linejoin:miter;stroke-miterlimit:4;stroke-dasharray:none;stroke-opacity:1"
       d="m 109.84778,200.78297 c 32.51387,18.18085 57.52436,-20.30808 94.34614,-0.80181"
       id="path4683"
       inkscape:connector-curvature="0"
       sodipodi:nodetypes="cc" />
    <path
       style="fill:none;stroke:#000085;stroke-width:2.06500006;stroke-linecap:butt;stroke-linejoin:miter;stroke-miterlimit:4;stroke-dasharray:none;stroke-opacity:1"
       d="m 113.58955,216.01733 c 20.57508,16.49703 57.98276,-15.28636 87.12986,-0.53454"
       id="path4685"
       inkscape:connector-curvature="0"
       sodipodi:nodetypes="cc" />
    <path
       style="fill:none;stroke:#000085;stroke-width:2.06500006;stroke-linecap:butt;stroke-linejoin:miter;stroke-miterlimit:4;stroke-dasharray:none;stroke-opacity:1"
       d="m 125.34941,232.58804 c 17.66375,11.03864 54.4126,-11.25831 63.61014,-0.53454"
       id="path4687"
       inkscape:connector-curvature="0"
       sodipodi:nodetypes="cc" />
    <path
       sodipodi:type="spiral"
       style="fill:none;fill-rule:evenodd;stroke:#000085;stroke-width:1.43611932;stroke-miterlimit:4;stroke-dasharray:none;stroke-opacity:1"
       id="path4697"
       sodipodi:cx="-142.90714"
       sodipodi:cy="171.32292"
       sodipodi:expansion="2"
       sodipodi:revolution="2.4624388"
       sodipodi:radius="15.866079"
       sodipodi:argument="-18.248844"
       sodipodi:t0="0.071067907"
       d="m -142.91748,171.40238 c -0.12862,0.17562 -0.38537,-0.0111 -0.45832,-0.14048 -0.2651,-0.47022 0.19225,-0.98279 0.62259,-1.12119 0.98427,-0.31656 1.88034,0.56363 2.06617,1.47128 0.34212,1.67099 -1.12483,3.08101 -2.68653,3.29325 -2.53234,0.34416 -4.58583,-1.87578 -4.80244,-4.26835 -0.32316,-3.56931 2.81646,-6.39521 6.21673,-6.59375 4.78234,-0.27922 8.50939,3.94692 8.66716,8.53169 0.21237,6.17168 -5.26714,10.92847 -11.21321,11.02268 -7.73744,0.12259 -13.65252,-6.77718 -13.66031,-14.2613 -0.001,-1.23577 0.14687,-2.47099 0.43597,-3.67235"
       transform="matrix(0,1.3984405,1.3868674,0,-85.428757,376.43081)" />
    <path
       sodipodi:type="spiral"
       style="fill:none;fill-rule:evenodd;stroke:#000085;stroke-width:2;stroke-miterlimit:4;stroke-dasharray:none;stroke-opacity:1"
       id="path4701"
       sodipodi:cx="-130.30341"
       sodipodi:cy="189.27678"
       sodipodi:expansion="1.5"
       sodipodi:revolution="2.499326"
       sodipodi:radius="20.213572"
       sodipodi:argument="-14.924953"
       sodipodi:t0="0.070018999"
       d="m -130.18853,188.92032 c 0.54162,-0.39198 1.13679,0.31079 1.23419,0.79124 0.26176,1.29111 -1.06692,2.23301 -2.21932,2.26548 -2.16185,0.0609 -3.57943,-2.1063 -3.46149,-4.09631 0.18711,-3.15729 3.36637,-5.13695 6.33043,-4.8056 4.26785,0.47709 6.87981,4.81329 6.28403,8.87103 -0.80516,5.48387 -6.42533,8.78983 -11.68453,7.88597 -6.79734,-1.1682 -10.85333,-8.18699 -9.60277,-14.74651 1.56362,-8.20169 10.08647,-13.05951 18.03817,-11.42734 9.69143,1.98926 15.3996,12.11439 13.35372,21.54442 -0.65629,3.02503 -2.04597,5.87357 -3.9998,8.27225"
       transform="scale(-1,1)" />
    <path
       sodipodi:type="spiral"
       style="fill:none;fill-rule:evenodd;stroke:#000085;stroke-width:2.18935061;stroke-miterlimit:4;stroke-dasharray:none;stroke-opacity:1"
       id="path4703"
       sodipodi:cx="-179.42442"
       sodipodi:cy="168.67709"
       sodipodi:expansion="2"
       sodipodi:revolution="2.3570671"
       sodipodi:radius="16.846909"
       sodipodi:argument="-15.042826"
       sodipodi:t0="0.074245028"
       d="m -179.40653,168.58597 c 0.16185,-0.19349 0.44485,0.0416 0.51956,0.19666 0.27149,0.56357 -0.29567,1.12222 -0.80367,1.25018 -1.16191,0.29265 -2.13251,-0.79212 -2.2797,-1.85566 -0.27098,-1.95798 1.53072,-3.47918 3.35261,-3.60811 2.95427,-0.20907 5.16344,2.51144 5.23544,5.29454 0.10742,4.15193 -3.73432,7.18576 -7.68145,7.16166 -5.55149,-0.0339 -9.54641,-5.19939 -9.38679,-10.51333 0.21487,-7.15323 6.9067,-12.2455 13.7902,-11.91081 6.13236,0.29817 11.45068,4.52646 13.62783,10.18713"
       transform="matrix(0,-0.90156031,-0.925624,0,333.50092,12.910425)" />
    <path
       style="fill:#00ffff;fill-opacity:0;stroke:#000085;stroke-width:5.39932537;stroke-miterlimit:4;stroke-dasharray:none;stroke-opacity:1"
       d="m 422.85938,758.12685 -2.67857,-1.41406 v -5.38224 c 0,-5.27857 0.79562,-6.48849 1.75448,-2.66809 0.26628,1.06098 1.42689,3.82915 2.57912,6.15148 1.15224,2.32234 2.09497,4.35017 2.09497,4.50628 0,0.55437 -1.10622,0.20234 -3.75,-1.19337 z"
       id="path4705"
       inkscape:connector-curvature="0"
       transform="scale(0.26458333)" />
  </g>
</svg>
