<?xml version="1.0" encoding="UTF-8" standalone="no"?>
<!-- Created with Inkscape (http://www.inkscape.org/) -->

<svg
   xmlns:dc="http://purl.org/dc/elements/1.1/"
   xmlns:cc="http://creativecommons.org/ns#"
   xmlns:rdf="http://www.w3.org/1999/02/22-rdf-syntax-ns#"
   xmlns:svg="http://www.w3.org/2000/svg"
   xmlns="http://www.w3.org/2000/svg"
   xmlns:sodipodi="http://sodipodi.sourceforge.net/DTD/sodipodi-0.dtd"
   xmlns:inkscape="http://www.inkscape.org/namespaces/inkscape"
   width="210mm"
   height="297mm"
   viewBox="0 0 210 297"
   version="1.1"
   id="svg843"
   inkscape:version="0.92.4 (5da689c313, 2019-01-14)"
   sodipodi:docname="red_box_pattern.svg">
  <defs
     id="defs837" />
  <sodipodi:namedview
     id="base"
     pagecolor="#ffffff"
     bordercolor="#666666"
     borderopacity="1.0"
     inkscape:pageopacity="0.0"
     inkscape:pageshadow="2"
     inkscape:zoom="0.35"
     inkscape:cx="-32.13"
     inkscape:cy="666.12571"
     inkscape:document-units="mm"
     inkscape:current-layer="layer1"
     showgrid="false"
     inkscape:window-width="1920"
     inkscape:window-height="1001"
     inkscape:window-x="-9"
     inkscape:window-y="-9"
     inkscape:window-maximized="1" />
  <metadata
     id="metadata840">
    <rdf:RDF>
      <cc:Work
         rdf:about="">
        <dc:format>image/svg+xml</dc:format>
        <dc:type
           rdf:resource="http://purl.org/dc/dcmitype/StillImage" />
        <dc:title></dc:title>
      </cc:Work>
    </rdf:RDF>
  </metadata>
  <g
     inkscape:label="Layer 1"
     inkscape:groupmode="layer"
     id="layer1">
    <rect
       style="fill:#ffffff;fill-opacity:0.0995025;stroke:#000008;stroke-width:0.66025126;stroke-linejoin:round;stroke-miterlimit:4;stroke-dasharray:none;stroke-opacity:1"
       id="rect1388"
       width="47.868214"
       height="47.868214"
       x="30.457418"
       y="218.68982"
       rx="1.8156908" />
    <circle
       style="fill:#000000;fill-opacity:1;stroke:#000008;stroke-width:0.66025126;stroke-linejoin:round;stroke-miterlimit:4;stroke-dasharray:none;stroke-opacity:1"
       id="path1390"
       cx="53.566208"
       cy="243.44925"
       r="8.2531404" />
    <path
       style="fill:#ff0000;fill-opacity:1;stroke:#000008;stroke-width:1.88643217;stroke-linejoin:round;stroke-miterlimit:4;stroke-dasharray:none;stroke-opacity:1"
       d="m 31.33538,265.66462 c -0.350753,-0.35075 -0.392164,-2.78431 -0.392164,-23.04555 0,-21.6293 0.02063,-22.67206 0.456379,-23.06641 0.41759,-0.37791 2.3763,-0.41301 23.045552,-0.41301 21.567084,0 22.607861,0.0206 23.002189,0.45637 0.37792,0.4176 0.413018,2.37775 0.413018,23.06641 0,20.22182 -0.04142,22.65145 -0.392165,23.00219 -0.350758,0.35076 -2.786204,0.39216 -23.066404,0.39216 -20.2802,0 -22.715647,-0.0414 -23.066405,-0.39216 z m 26.267254,-14.57669 c 2.922229,-1.56067 4.358258,-3.87526 4.493065,-7.24192 0.116285,-2.90415 -0.513531,-4.58883 -2.433206,-6.5085 -1.939299,-1.9393 -3.617318,-2.56234 -6.508504,-2.41654 -3.495918,0.17628 -5.828271,1.65678 -7.289127,4.62688 -0.74619,1.5171 -0.821209,1.87668 -0.817853,3.92008 0.0029,1.78789 0.117193,2.49734 0.55651,3.45561 0.990691,2.16095 2.521411,3.63377 4.755973,4.57607 1.20586,0.5085 1.744244,0.58683 3.543175,0.51553 1.842086,-0.073 2.329019,-0.19503 3.699967,-0.92721 z"
       id="path2888"
       inkscape:connector-curvature="0" />
  </g>
</svg>
