<?xml version="1.0" encoding="UTF-8" standalone="no"?>
<!-- Created with Inkscape (http://www.inkscape.org/) -->

<svg
   xmlns:dc="http://purl.org/dc/elements/1.1/"
   xmlns:cc="http://creativecommons.org/ns#"
   xmlns:rdf="http://www.w3.org/1999/02/22-rdf-syntax-ns#"
   xmlns:svg="http://www.w3.org/2000/svg"
   xmlns="http://www.w3.org/2000/svg"
   xmlns:sodipodi="http://sodipodi.sourceforge.net/DTD/sodipodi-0.dtd"
   xmlns:inkscape="http://www.inkscape.org/namespaces/inkscape"
   width="210mm"
   height="297mm"
   viewBox="0 0 210 297"
   version="1.1"
   id="svg8"
   inkscape:version="0.92.4 (5da689c313, 2019-01-14)"
   sodipodi:docname="starburst.svg">
  <defs
     id="defs2" />
  <sodipodi:namedview
     id="base"
     pagecolor="#ffffff"
     bordercolor="#666666"
     borderopacity="1.0"
     inkscape:pageopacity="0.0"
     inkscape:pageshadow="2"
     inkscape:zoom="0.7"
     inkscape:cx="-158.64729"
     inkscape:cy="644.07844"
     inkscape:document-units="mm"
     inkscape:current-layer="layer1"
     showgrid="false"
     inkscape:window-width="1920"
     inkscape:window-height="1001"
     inkscape:window-x="-9"
     inkscape:window-y="-9"
     inkscape:window-maximized="1" />
  <metadata
     id="metadata5">
    <rdf:RDF>
      <cc:Work
         rdf:about="">
        <dc:format>image/svg+xml</dc:format>
        <dc:type
           rdf:resource="http://purl.org/dc/dcmitype/StillImage" />
        <dc:title></dc:title>
      </cc:Work>
    </rdf:RDF>
  </metadata>
  <g
     inkscape:label="Layer 1"
     inkscape:groupmode="layer"
     id="layer1">
    <path
       sodipodi:type="star"
       id="path4528"
       sodipodi:sides="5"
       sodipodi:cx="37.041664"
       sodipodi:cy="42.622021"
       sodipodi:r1="79.140671"
       sodipodi:r2="39.570335"
       sodipodi:arg1="1.4559197"
       sodipodi:arg2="2.0842383"
       inkscape:flatsided="false"
       inkscape:rounded="0"
       inkscape:randomized="0"
       d="M 46.113095,121.24107 17.605574,77.090119 -34.926269,75.544086 -1.745528,34.788428 -16.508395,-15.650073 32.505952,3.3124957 75.91384,-26.314179 73.025632,26.160991 114.61605,58.2892 63.816692,71.75807 Z"
       inkscape:transform-center-x="5.111056"
       inkscape:transform-center-y="4.816623"
       style="stroke-width:0.26458332"
       transform="matrix(-1.8232771,0,0,0.99487682,72.616678,94.737218)" />
    <path
       sodipodi:type="star"
       id="path4532"
       sodipodi:sides="5"
       sodipodi:cx="144.00893"
       sodipodi:cy="148.45535"
       sodipodi:r1="79.149689"
       sodipodi:r2="39.574848"
       sodipodi:arg1="1.2248813"
       sodipodi:arg2="1.8531998"
       inkscape:flatsided="false"
       inkscape:rounded="0"
       inkscape:randomized="0"
       d="m 170.84523,222.91666 -37.86442,-36.45408 -51.495917,10.52543 22.969137,-47.27614 -25.923389,-45.72299 52.060129,7.23582 35.47438,-38.783793 9.2058,51.748113 47.84776,21.7533 -46.37064,24.74627 z"
       inkscape:transform-center-x="-13.960533"
       inkscape:transform-center-y="-0.7785173"
       style="stroke-width:0.26458332;fill:#ff0000;stroke:#fc0000;stroke-opacity:1"
       transform="matrix(2.0482777,0,0,1.0025119,-292.85467,-18.702795)" />
    <path
       style="fill:#f2f2f2;stroke:#fc0000;stroke-width:1.42857146;stroke-opacity:1"
       d="M 197.35271,764.79919 C 187.53128,760.09708 156.67413,745.60846 128.78128,732.60225 100.88842,719.59605 43.307063,692.63911 0.82272006,672.69793 -51.692309,648.04859 -77.943351,636.44125 -81.175023,636.44125 c -5.257214,0 -10.686314,0.52821 -235.329017,22.89613 -86.5855,8.62141 -157.94045,15.6753 -158.56656,15.6753 -0.62611,0 33.90214,-35.19643 76.72945,-78.21429 42.8273,-43.01786 82.68226,-83.23207 88.56656,-89.36491 l 10.69872,-11.15063 -6.0398,-5.27794 c -3.32188,-2.90288 -48.09768,-41.59938 -99.50177,-85.99223 -51.4041,-44.39286 -93.36476,-80.81463 -93.24593,-80.93726 0.11884,-0.12263 51.00179,3.24483 113.07322,7.48325 62.07143,4.23841 127.96428,8.6601 146.42857,9.82596 40.53531,2.55946 90.12674,5.89723 119.44539,8.03932 l 21.588224,1.57728 34.126057,-17.7965 c 41.7981,-21.79744 58.0727148,-30.39991 78.411758,-41.44708 8.642857,-4.69437 21.178571,-11.42375 27.857143,-14.95416 31.661742,-16.73696 77.362298,-41.24421 85.714288,-45.96487 5.10714,-2.88663 16.03571,-8.70323 24.28571,-12.92578 8.25,-4.22255 17.42447,-9.19067 20.3877,-11.04026 5.00773,-3.12573 5.45669,-3.18396 6.36583,-0.82569 0.53797,1.39547 16.53871,45.19813 35.5572,97.33925 19.01847,52.14112 35.14073,95.36371 35.82721,96.05019 0.68649,0.68649 4.76129,1.96542 9.05512,2.84205 4.29381,0.87664 10.05694,2.09448 12.80694,2.70633 2.75,0.61184 10.14286,2.1964 16.42857,3.52122 6.28572,1.32483 21.71429,4.88322 34.28572,7.9075 12.57143,3.0243 82.96428,18.83453 156.42857,35.13386 73.46428,16.29933 134.0425,30.03589 134.61826,30.52566 0.57574,0.48978 -53.42426,15.16937 -120,32.62131 -66.57576,17.45195 -127.79683,33.58369 -136.04683,35.84833 -8.25,2.26463 -22.71429,6.12639 -32.14286,8.58166 -60.66626,15.79797 -64.03641,16.81267 -65.02987,19.57958 -0.54057,1.50558 -10.82842,45.48742 -22.86187,97.73742 -12.03346,52.25 -22.25202,95.42913 -22.70792,95.95363 -0.4559,0.52448 -8.86463,-2.89357 -18.68605,-7.59569 z"
       id="path4536"
       inkscape:connector-curvature="0"
       transform="scale(0.26458333)" />
    <path
       style="fill:#ffd42a;stroke:#fc0000;stroke-width:1.42857146;stroke-opacity:1"
       d="m -165.50444,344.92102 c -30.25,-2.20036 -58.97991,-4.04416 -63.84426,-4.09735 -4.86434,-0.0532 -9.26675,-0.78031 -9.78313,-1.61583 -1.22634,-1.98425 -8.89965,-78.48047 -7.87252,-78.48221 0.43209,-7.2e-4 42.65702,15.58846 93.83316,34.64263 l 93.047524,34.64395 -18.047528,9.60833 c -21.311743,11.34617 -11.993415,10.78061 -87.333246,5.30048 z"
       id="path4538"
       inkscape:connector-curvature="0"
       transform="scale(0.26458333)" />
    <path
       style="fill:#ffd42a;stroke:#fc0000;stroke-width:1.42857146;stroke-opacity:1"
       d="m 297.35271,409.26317 c -12.96429,-2.99516 -28.44454,-6.50281 -34.40056,-7.79476 l -10.82913,-2.34901 -10.9974,-29.55336 c -13.88027,-37.30052 -13.4644,-35.65812 -9.27973,-36.64856 17.81654,-4.21684 153.16937,-32.14701 153.61732,-31.69906 0.32437,0.32436 -13.08012,26.06077 -29.78775,57.19201 -20.44626,38.09742 -31.09247,56.55259 -32.56442,56.45037 -1.2028,-0.0835 -12.79405,-2.60247 -25.75833,-5.59763 z"
       id="path4540"
       inkscape:connector-curvature="0"
       transform="scale(0.26458333)" />
    <path
       style="fill:#ffd42a;stroke:#fc0000;stroke-width:1.42857146;stroke-opacity:1"
       d="m 247.35271,645.55715 c 0,-1.02584 14.03062,-61.32553 15.16362,-65.169 0.89268,-3.02823 9.24261,-5.61819 67.55378,-20.95368 l 43.4317,-11.42227 69.67144,46.70663 c 38.31928,25.68865 69.56074,46.78373 69.42544,46.87797 -0.13528,0.0942 -56.49598,0.9154 -125.24598,1.82482 -68.75,0.90942 -128.375,1.96649 -132.5,2.34904 -4.125,0.38255 -7.5,0.28647 -7.5,-0.21351 z"
       id="path4542"
       inkscape:connector-curvature="0"
       transform="scale(0.26458333)" />
    <path
       style="fill:#ffd42a;stroke:#fc0000;stroke-width:1.42857146;stroke-opacity:1"
       d="M -98.111497,729.04431 C -128.0995,683.29165 -152.15573,645.4309 -151.56979,644.9093 c 0.58595,-0.5216 16.81535,-2.4071 36.06535,-4.18999 l 35.000003,-3.24162 12.341487,5.12352 c 6.787819,2.81794 37.96639,17.12225 69.2857129,31.78734 31.3193291,14.6651 61.2835141,28.61489 66.5870861,30.99954 5.303571,2.38464 9.6115,4.72214 9.573157,5.19444 -0.07466,0.91987 -118.002026,100.59129 -119.79931,101.25358 -0.589356,0.21717 -25.607193,-37.03914 -55.595193,-82.7918 z"
       id="path4544"
       inkscape:connector-curvature="0"
       transform="scale(0.26458333)" />
    <path
       style="fill:#ffffff;stroke:#fc0000;stroke-width:1.42857146;stroke-opacity:1"
       d="m -456.91363,585.15303 c -30.23935,-4.46911 -54.34649,-8.50969 -53.57143,-8.97907 0.77506,-0.46938 46.5972,-19.88391 101.82699,-43.1434 98.15152,-41.33556 100.49822,-42.23728 103.98133,-39.95506 1.95995,1.2842 3.37907,2.86313 3.15363,3.50873 -1.10448,3.16288 -96.16973,96.97926 -98.13637,96.84716 -1.25044,-0.084 -27.01481,-3.80925 -57.25415,-8.27836 z"
       id="path4546"
       inkscape:connector-curvature="0"
       transform="scale(0.26458333)" />
    <path
       style="fill:#ffd42a;stroke:#fc0000;stroke-width:1.42857146;stroke-opacity:1"
       d="m 211.63842,769.69053 c -1.17857,-0.44598 -48.42857,-22.48688 -105,-48.97977 -125.049414,-58.56175 -154.3488,-72.12145 -172.857143,-79.998 l -14.285714,-6.07953 -96.428573,9.54522 c -53.03571,5.24986 -140.78571,13.94411 -195,19.32054 -54.21428,5.37644 -98.77296,9.58994 -99.01927,9.36334 -0.24632,-0.22661 38.48583,-39.65432 86.07143,-87.61715 47.5856,-47.96285 86.51927,-87.86433 86.51927,-88.66999 0,-0.80566 -19.1491,-18.04038 -42.55356,-38.29938 -23.40446,-20.25902 -67.41078,-58.3461 -97.79182,-84.63798 -30.38104,-26.29188 -55.10694,-47.92169 -54.94644,-48.06624 0.1605,-0.14454 12.50611,0.618 27.43468,1.69455 14.92857,1.07655 94.64285,6.47231 177.14285,11.99058 82.5,5.51827 159.45699,10.74439 171.01552,11.61359 l 21.015513,1.58038 37.555914,-19.64596 C -38.833166,321.99946 14.066991,293.86402 58.066992,270.28154 171.91328,209.26386 177.63575,206.2481 178.30393,206.91629 c 0.33043,0.33043 9.61643,25.26943 20.63555,55.42001 38.07187,104.17243 50.11631,136.25405 51.7616,137.87232 0.9084,0.89347 20.61591,5.85343 43.79448,11.0221 23.17857,5.16869 100.96429,22.63257 172.85715,38.80866 71.89285,16.17608 132.80357,29.78238 135.35714,30.23624 2.55357,0.45384 4.64286,1.27853 4.64286,1.83261 0,0.5541 -3.69643,2.03342 -8.21429,3.28738 -16.46589,4.57022 -117.79736,31.52158 -218.21429,58.03895 -116.90681,30.87189 -116.92557,30.87717 -119.18128,33.59515 -0.91657,1.1044 -9.3564,35.01308 -18.75517,75.35262 -9.39877,40.33955 -19.4577,83.46963 -22.35317,95.84463 -2.89548,12.375 -5.62196,22.44925 -6.05888,22.38722 -0.4369,-0.062 -1.75864,-0.47767 -2.93721,-0.92365 z"
       id="path4548"
       inkscape:connector-curvature="0"
       transform="scale(0.26458333)" />
    <path
       style="fill:#ffd42a;stroke:#fc0000;stroke-width:1.42857146;stroke-opacity:1"
       d="m -426.21872,588.44829 c -36.81168,-5.46128 -79.41197,-12.3577 -78.97512,-12.78503 0.57044,-0.55802 87.82481,-37.51786 139.6894,-59.17066 50.52166,-21.09214 58.1962,-23.85515 60.3309,-21.72045 2.0611,2.0611 -5.26151,10.45767 -32.0189,36.71492 -48.28812,47.38553 -62.38059,60.66147 -64.23203,60.51035 -1.06541,-0.087 -12.22282,-1.68407 -24.79425,-3.54913 z"
       id="path4550"
       inkscape:connector-curvature="0"
       transform="scale(0.26458333)" />
    <path
       style="fill:#ffffff;stroke:#fc0000;stroke-width:1.42857146;stroke-opacity:1"
       d="m 92.352706,712.79102 c -66,-30.91766 -131.748486,-61.45157 -146.107757,-67.85313 l -26.107758,-11.63923 -161.035101,15.93027 c -224.98546,22.25649 -219.02455,21.68832 -222.54949,21.21272 -2.59786,-0.3505 12.33913,-16.1971 81.66278,-86.63566 60.76907,-61.74638 84.5256,-86.77241 83.7264,-88.2005 -1.60883,-2.87483 -14.19185,-13.98431 -107.86621,-95.23457 -46.19528,-40.06837 -83.80243,-72.98098 -83.57143,-73.13912 0.41849,-0.28651 13.524,0.55661 97.56285,6.27658 24.35714,1.65783 77.39286,5.2443 117.85714,7.96993 40.46429,2.72563 96.93756,6.60063 125.49615,8.61112 l 51.924726,3.65542 45.218128,-23.8438 c 24.869986,-13.11409 82.324529,-43.6828 127.676786,-67.93046 87.64117,-46.8575 100.69377,-53.61635 101.57871,-52.59904 0.30675,0.35262 14.75462,39.21256 32.10638,86.35541 42.15174,114.52169 38.15147,105.17682 45.99912,107.45639 8.20748,2.3841 81.59773,19.03437 228.57143,51.85674 64.03572,14.30053 116.92782,26.46169 117.53799,27.02477 1.22831,1.13352 5.52104,-0.038 -186.8237,50.98315 -75.42857,20.00808 -140.59613,37.4559 -144.81679,38.77292 -4.22067,1.31703 -8.4961,3.69896 -9.50095,5.29318 -1.83525,2.91162 -13.36092,49.79117 -32.13008,130.68602 -12.77827,55.07418 -14.41087,61.53143 -15.51157,61.35153 -0.49377,-0.0807 -54.89775,-25.44298 -120.897754,-56.36064 z"
       id="path4552"
       inkscape:connector-curvature="0"
       transform="scale(0.26458333)" />
    <path
       style="fill:#ffffff;stroke:#fc0000;stroke-width:1.42857146;stroke-opacity:1"
       d="M 139.49556,733.26498 C 50.30372,691.52943 -17.613809,659.96413 -52.647294,643.96482 l -26.428572,-12.06956 -37.142854,3.69169 c -20.42857,2.03043 -102.71429,10.11636 -182.85715,17.96873 -80.14285,7.85237 -149.52525,14.68323 -154.1831,15.17968 l -8.46882,0.90265 4.39693,-5.52695 c 2.41832,-3.03983 33.90413,-35.74124 69.96847,-72.66981 75.80372,-77.62026 90.42938,-93.11729 90.42938,-95.817 0,-1.78114 -21.46504,-20.82767 -139.17561,-123.49433 -21.15373,-18.4502 -40.76087,-35.67431 -43.57143,-38.2758 l -5.1101,-4.72998 17.14286,0.86221 c 19.2065,0.96599 162.87591,10.60759 288.57142,19.36591 l 82.857147,5.77339 20.714286,-10.93235 C -64.11158,338.1805 -9.6845085,309.23761 45.444606,279.87576 167.44968,214.89568 176.33505,210.37057 177.54305,212.60124 c 0.50548,0.93343 13.48298,35.76858 28.83888,77.41144 33.29098,90.28005 37.03155,100.1356 40.83499,107.591 3.48591,6.83294 -16.38066,1.71275 165.13579,42.56015 186.53281,41.97625 185.68731,41.78058 184.71894,42.74895 -0.273,0.273 -74.41073,20.18304 -164.75052,44.24454 -90.33977,24.0615 -166.18271,44.86083 -168.53985,46.22073 -3.98673,2.30006 -4.70763,4.11264 -10.33357,25.98216 -3.32632,12.93028 -13.52906,55.33104 -22.67273,94.2239 -9.14369,38.89285 -17.0293,71.40248 -17.52357,72.2436 -0.5577,0.94905 -28.54312,-11.40633 -73.75585,-32.56273 z"
       id="path4554"
       inkscape:connector-curvature="0"
       transform="scale(0.26458333)" />
    <path
       style="fill:#ffffff;stroke:#fc0000;stroke-width:1.42857146;stroke-opacity:1"
       d="M 183.06699,751.66339 C 168.53128,745.11603 128.35271,726.54676 93.781277,710.39835 22.90582,677.29222 -62.099623,637.98539 -72.437951,633.53795 l -6.871558,-2.95606 -182.740331,17.92822 c -100.50717,9.86052 -185.95132,18.33228 -189.87589,18.82614 l -7.13558,0.89791 6.34214,-6.96788 c 3.48817,-3.83235 35.35432,-36.86075 70.81366,-73.39646 71.04106,-73.1975 86.40107,-89.56631 86.40107,-92.07554 0,-2.20826 -11.36824,-12.4291 -105.36138,-94.72713 -43.49155,-38.08013 -78.78322,-69.52892 -78.42591,-69.88622 0.81782,-0.81783 197.42692,12.08102 342.54478,22.47318 l 40.900341,2.92894 79.813943,-42.45233 C 154.98659,223.16707 175.40082,212.5083 176.38698,213.66374 c 0.29791,0.34906 13.87883,36.63465 30.17981,80.63465 34.8685,94.11786 39.09906,105.10224 41.43412,107.58089 2.82635,3.00015 19.05544,6.90055 179.3518,43.10425 83.67857,18.8992 155.17925,35.15512 158.8904,36.12425 l 6.74755,1.76204 -71.74755,19.14476 c -204.31666,54.51883 -257.38326,69.1331 -260.53718,71.75063 -2.81555,2.33668 -6.00481,14.1146 -22.58068,83.39032 -23.62939,98.75448 -25.58766,106.42909 -27.15446,106.42035 -0.81137,-0.004 -13.36808,-5.36515 -27.9038,-11.91249 z"
       id="path4556"
       inkscape:connector-curvature="0"
       transform="scale(0.26458333)" />
    <path
       style="fill:#ffffff;stroke:#fc0000;stroke-width:1.42857146;stroke-opacity:1"
       d="m 189.49556,752.95788 c -11,-4.9128 -64.35714,-29.52923 -118.571426,-54.70319 C 16.709849,673.08073 -39.150437,647.23693 -53.209837,640.82402 l -25.562557,-11.65983 -95.866016,9.4243 c -52.72631,5.18336 -137.29413,13.55332 -187.92848,18.59989 -50.63435,5.04657 -92.20241,9.03225 -92.37346,8.85708 -0.17106,-0.17517 28.94889,-30.53278 64.71099,-67.46135 72.58344,-74.95095 96.15349,-100.19353 96.15349,-102.97658 0,-2.22994 -12.96591,-14.02875 -82.73084,-75.28404 -70.02756,-61.48588 -98.80301,-87.11029 -98.34105,-87.57225 0.69896,-0.69896 143.45932,8.6045 287.83598,18.7578 l 91.764086,6.45332 L 8.4025058,302.70712 C 105.89938,250.88217 167.74316,218.42107 173.24213,216.18466 c 1.99663,-0.81201 3.80045,2.81099 11.02446,22.14286 4.75049,12.71255 19.6523,52.68516 33.11514,88.82801 13.46285,36.14286 25.87456,68.25856 27.58158,71.36823 2.47188,4.50302 4.41231,6.04662 9.53225,7.58292 8.98895,2.69723 95.81409,22.80498 223.91326,51.85585 59.9023,13.5849 108.75944,24.83036 108.57143,24.9899 -0.188,0.15955 -41.80612,11.35233 -92.48469,24.87286 -130.54957,34.82932 -214.97415,57.92866 -225.72335,61.76 -7.24885,2.58372 -9.68885,4.21799 -11.30995,7.57522 -1.88844,3.91088 -10.63418,38.66138 -36.26495,144.09567 -5.13238,21.1125 -9.86489,38.8921 -10.51668,39.51021 -0.65178,0.61812 -10.18507,-2.89571 -21.18507,-7.80851 z"
       id="path4558"
       inkscape:connector-curvature="0"
       transform="scale(0.26458333)" />
    <path
       style="fill:#ffffff;stroke:#ffd600;stroke-width:1.42857146;stroke-opacity:1"
       d="m 195.20985,753.74771 c -7.07143,-3.00686 -71.51309,-32.58756 -143.203701,-65.73489 l -130.346543,-60.26789 -73.224886,7.25019 c -40.27367,3.9876 -122.08201,12.03686 -181.7963,17.88723 -59.71429,5.85038 -111.06454,10.99381 -114.11168,11.42986 -5.367,0.768 -4.22494,-0.56 36.52151,-42.46766 85.53251,-87.97004 118.30446,-122.92506 118.30446,-126.18519 0,-2.59658 -14.90956,-16.21205 -97.14606,-88.71415 -42.82318,-37.75419 -78.67701,-69.62799 -79.67516,-70.83069 -1.58969,-1.91547 -1.05764,-2.12339 4.28891,-1.6761 3.35705,0.28085 17.35373,1.17509 31.10373,1.98719 59.59694,3.51994 174.63492,11.26671 298.34769,20.09104 l 40.490543,2.88816 48.080886,-25.58631 C 31.870834,291.76385 148.65275,230.10305 161.46079,223.66853 c 6.79453,-3.41345 12.50289,-5.47345 13.2094,-4.76695 0.68429,0.6843 15.43069,39.05752 32.76977,85.27384 37.08512,98.84819 36.96017,98.54891 42.28979,101.29791 4.5102,2.32636 47.63108,12.5125 200.4801,47.35799 135.7944,30.95749 130.78131,29.73884 127.63211,31.02657 -1.44765,0.59196 -38.95354,10.77752 -83.3464,22.63457 -166.99194,44.60252 -223.85704,60.3921 -231.5042,64.28119 -2.7916,1.4197 -5.87824,4.34284 -6.85923,6.49586 -0.98097,2.15301 -10.44961,39.00814 -21.04141,81.9003 -22.28256,90.23462 -24.86741,100.14351 -26.1088,100.08674 -0.50321,-0.023 -6.70064,-2.502 -13.77207,-5.50884 z"
       id="path4560"
       inkscape:connector-curvature="0"
       transform="scale(0.26458333)" />
    <path
       style="fill:#ffffff;stroke:#ffd600;stroke-width:1.42857146;stroke-opacity:1"
       d="M 205.92413,756.74908 C 201.60632,755.33501 156.83966,734.89413 40.641106,681.27931 L -78.213351,626.43903 -237.21604,642.16428 c -87.45147,8.64888 -170.57411,16.91495 -184.71697,18.36904 -14.14286,1.45409 -25.89613,2.49994 -26.11838,2.32414 -0.22225,-0.1758 19.41526,-20.81637 43.63891,-45.86793 84.65101,-87.54417 113.19376,-118.15847 113.19376,-121.40902 0,-0.92696 -5.34423,-6.74415 -11.87607,-12.92708 -9.42626,-8.92272 -102.65316,-91.88531 -155.42339,-138.31122 -5.33112,-4.69018 -9.56609,-8.60404 -9.41103,-8.69746 0.86182,-0.51926 159.73754,10.06485 302.23567,20.13457 l 70.525203,4.98371 85.9033713,-45.55613 C 123.76013,244.66128 166.31515,222.45217 170.41786,221.43193 c 4.43209,-1.10214 -0.13833,-11.88371 39.97257,94.29503 14.84088,39.28572 29.06795,75.60715 31.6157,80.71429 4.03688,8.09217 5.36678,9.52724 10.34658,11.16478 8.75487,2.87895 60.1645,14.97262 190,44.6959 65.21428,14.92953 121.78571,27.96896 125.71428,28.97652 l 7.14286,1.83193 -7.85714,2.30155 c -4.32143,1.26586 -38.07143,10.41588 -75,20.33338 -188.93085,50.73904 -224.62405,60.77622 -231.71865,65.16092 -5.82858,3.60228 -4.8664,0.35972 -30.45818,102.64452 -11.10256,44.37451 -20.61902,81.40526 -21.14767,82.29053 -0.52868,0.88527 -1.9255,1.29378 -3.10408,0.9078 z"
       id="path4562"
       inkscape:connector-curvature="0"
       transform="scale(0.26458333)" />
    <path
       style="fill:#ffffff;stroke:#ffd600;stroke-width:1.42857146;stroke-opacity:1"
       d="M 188.58888,747.83992 C 121.21521,716.94169 55.696934,686.79995 -5.6871085,658.46305 l -72.3255425,-33.38786 -49.103029,4.91552 c -198.0456,19.82552 -310.99757,30.78271 -313.71226,30.4324 -2.62489,-0.33872 5.30326,-9.22596 45.37432,-50.86333 55.99478,-58.18355 93.86591,-98.31429 101.08404,-107.11533 l 5.03541,-6.13964 -2.86311,-3.86036 c -4.08087,-5.50224 -26.52641,-25.92259 -103.96522,-94.58467 -37.4252,-33.18353 -67.85531,-60.46561 -67.62245,-60.62684 0.65868,-0.45608 208.4188,13.44358 319.58133,21.38076 l 49.15794,3.50996 L 5.0820915,309.05178 C 100.69799,258.37137 170.26211,222.15553 171.99418,222.15553 c 1.23297,0 8.0896,17.07767 28.88501,71.94346 38.2681,100.96494 42.42506,110.68994 48.49709,113.45654 5.49395,2.50322 47.57581,12.55172 190.48054,45.48383 70.91297,16.34176 128.12726,30.16229 127.14286,30.71232 -0.98442,0.55001 -39.07555,11.05855 -84.64697,23.35233 -220.50565,59.48562 -223.20519,60.29404 -227.21179,68.04195 -2.34781,4.54019 -12.31806,42.15095 -32.8169,123.79529 -11.11687,44.27711 -14.54769,56.04983 -16.31044,55.96874 -1.22776,-0.0564 -9.06889,-3.23801 -17.4247,-7.07007 z"
       id="path4564"
       inkscape:connector-curvature="0"
       transform="scale(0.26458333)" />
    <path
       style="fill:#ffffff;stroke:#ffd600;stroke-width:1.42857146;stroke-opacity:1"
       d="M 197.35271,750.40919 C 193.81699,748.79539 137.88842,723.06005 73.066992,693.21956 8.2455629,663.37906 -52.201051,635.55883 -61.258809,631.39685 l -16.468642,-7.56724 -114.245639,11.31701 c -62.8351,6.22437 -140.9242,13.86451 -173.53135,16.97811 -32.60714,3.11362 -62.74047,6.01642 -66.96295,6.45069 l -7.67723,0.78959 4.65996,-5.39045 c 2.56298,-2.96475 28.88275,-30.78331 58.48839,-61.81903 89.32622,-93.64104 89.64993,-94.00511 87.37238,-98.26077 -2.30568,-4.30818 -21.39616,-21.87871 -96.82874,-89.11934 -38.71388,-34.50956 -70.76882,-63.35943 -71.23322,-64.11084 -0.48248,-0.78067 1.5615,-1.36619 4.76923,-1.36619 6.27262,0 207.18917,13.39696 298.81833,19.92497 l 59.263281,4.22215 90.0224291,-47.62157 C 98.151563,261.35625 139.58746,239.61589 158.46085,230.15855 l 13.251,-6.64 2.9716,6.81849 c 1.63437,3.75017 13.42967,34.13992 26.21178,67.53278 41.37229,108.08371 41.63283,108.64621 51.89963,112.04527 7.94543,2.6305 50.59447,12.81162 158.64939,37.87253 119.44516,27.70261 148.7656,34.76609 148.7656,35.83854 0,0.53649 -43.23214,12.69802 -96.07143,27.02562 -178.93217,48.51824 -202.13823,55.29783 -207.44486,60.60447 -3.73005,3.73004 -8.56194,20.72811 -31.3213,110.185 -16.75517,65.85708 -18.56797,72.23088 -20.4842,72.02248 -0.60873,-0.0661 -3.99964,-1.44075 -7.53535,-3.05454 z"
       id="path4566"
       inkscape:connector-curvature="0"
       transform="scale(0.26458333)" />
    <path
       style="fill:#ffffff;stroke:#ffd600;stroke-width:1.42857146;stroke-opacity:1"
       d="m 63.029177,687.20205 -140.676471,-64.72739 -54.999996,5.49313 c -115.91639,11.57716 -303.48767,29.7477 -303.80495,29.43042 -0.18261,-0.1826 28.96985,-31.16906 64.78324,-68.85878 72.56511,-76.36692 83.30742,-88.32102 83.30742,-92.70487 0,-4.72945 -11.04407,-15.12841 -108.57143,-102.22944 -63.0268,-56.2888 -59.49747,-52.87874 -54.72428,-52.8751 9.07615,0.007 337.72662,22.18598 349.43178,23.5815 6.801459,0.81088 7.602173,0.41962 112.1428586,-54.79698 C 67.82822,278.927 127.81421,247.39354 143.21952,239.44017 l 28.00969,-14.46067 2.92825,7.51659 c 1.61055,4.13412 15.2327,39.33802 30.27147,78.23087 28.9528,74.877 37.08012,93.29983 43.03946,97.56092 4.73334,3.38448 17.553,6.57318 162.02717,40.30201 121.23677,28.30384 141.11273,33.0291 145,34.47189 1.18823,0.44101 -1.99387,1.91964 -7.14285,3.31907 -98.7711,26.84463 -245.51322,67.50784 -261.2658,72.39848 -24.2268,7.5216 -30.44598,10.44038 -32.67642,15.33565 -2.90256,6.37044 -9.80913,31.48121 -26.75821,97.28703 -18.43557,71.57721 -20.47255,78.99837 -21.93107,79.89978 -0.55856,0.3452 -64.31996,-28.49968 -141.692033,-64.09974 z"
       id="path4568"
       inkscape:connector-curvature="0"
       transform="scale(0.26458333)" />
    <path
       style="fill:#ffffff;stroke:#ffd600;stroke-width:1.42857146;stroke-opacity:1"
       d="M 141.63842,721.64333 C 108.24556,706.44529 45.245563,677.62069 1.6384201,657.58869 l -79.2857141,-36.42184 -90.714286,8.98613 c -49.89286,4.94237 -128,12.56845 -173.57143,16.94685 -45.57143,4.37839 -85.42857,8.29983 -88.57143,8.71432 l -5.71428,0.7536 11.44748,-11.13469 c 6.29612,-6.12407 28.81193,-29.4561 50.03514,-51.84895 76.86912,-81.1055 87.80309,-93.32216 87.80309,-98.1034 0,-4.37858 -18.27028,-21.5888 -111.07143,-104.62702 -29.26785,-26.18881 -53.21428,-47.91949 -53.21428,-48.2904 0,-0.37092 5.94643,-0.27128 13.21428,0.22143 7.26786,0.4927 37.96429,2.49767 68.21429,4.45549 73.3237,4.7456 217.72976,14.59539 239.85031,16.35995 32.238617,2.57167 33.382803,2.43063 51.009731,-6.28782 8.5627,-4.23518 67.629943,-35.09233 131.260543,-68.57143 63.630616,-33.4791 116.373946,-60.87109 117.207396,-60.87109 0.83346,0 5.90332,11.41071 11.26633,25.35714 42.85682,111.4483 58.82706,149.72756 64.60692,154.85706 4.9266,4.37226 15.74584,7.07893 213.3702,53.3793 49.10714,11.50506 89.74957,21.36341 90.3165,21.90746 0.56693,0.54405 -8.7545,3.66123 -20.71429,6.92705 -228.64654,62.43588 -266.22027,73.3958 -272.92543,79.60992 -4.26191,3.94981 -5.7813,8.79151 -21.10305,67.24778 -6.38418,24.35715 -15.563,59.34245 -20.39742,77.74512 -4.8344,18.40266 -9.42321,33.66551 -10.19736,33.91744 -0.77414,0.25194 -28.72895,-11.9767 -62.12181,-27.17476 z"
       id="path4570"
       inkscape:connector-curvature="0"
       transform="scale(0.26458333)" />
    <path
       style="fill:#ffffff;stroke:#ffd600;stroke-width:1.42857146;stroke-opacity:1"
       d="m 178.78128,736.93233 c -31.9804,-14.38442 -143.403431,-65.26208 -202.14286,-92.30187 -43.3883,-19.97314 -53.8808,-24.28278 -58.571429,-24.05733 -3.142857,0.15106 -31.107141,2.79188 -62.142861,5.86849 -31.03571,3.0766 -106.25,10.42766 -167.14285,16.33567 -60.89286,5.90802 -113.10925,11.08297 -116.03642,11.4999 -5.16957,0.73633 -4.59312,0.01 20.11071,-25.32466 53.40844,-54.77315 112.08984,-117.77404 118.34715,-127.05858 2.31426,-3.43387 3.22719,-6.26619 2.62814,-8.15363 -1.34381,-4.23397 -29.75175,-30.94249 -99.69138,-93.72764 -34.13467,-30.64286 -61.35801,-55.891 -60.49633,-56.10698 1.60248,-0.40167 165.52697,10.4001 279.11976,18.39253 35.48427,2.49669 66.11148,4.02501 69.743996,3.48028 7.174743,-1.07592 18.1534,-6.57561 126.988657,-63.61418 111.777017,-58.58028 139.619397,-73.02134 139.911897,-72.5683 1.4376,2.22654 10.37247,24.35023 22.95752,56.84522 31.66331,81.75564 47.30115,118.25626 52.51965,122.58724 5.12658,4.25467 30.21223,10.55044 220.32522,55.29524 42.42857,9.98595 77.61078,18.58333 78.18271,19.10532 1.16997,1.0678 -4.69438,2.76464 -96.75414,27.99566 -119.84377,32.84582 -171.0136,47.72384 -185.43493,53.91658 -10.79493,4.63552 -9.51234,1.04937 -35.13637,98.24282 -20.47414,77.65961 -21.77731,82.04501 -24.48466,82.39527 -1.1478,0.1485 -11.40833,-3.92267 -22.80118,-9.04705 z"
       id="path4572"
       inkscape:connector-curvature="0"
       transform="scale(0.26458333)" />
    <path
       style="fill:#ffffff;stroke:#ffd600;stroke-width:1.42857146;stroke-opacity:1"
       d="m 194.17966,742.04208 c -7.5729,-2.99072 -62.6954,-27.95919 -174.684097,-79.12549 -41.642857,-19.02613 -80.836686,-36.70063 -87.097386,-39.27667 l -11.383086,-4.68371 -16.474057,1.58932 c -175.381044,16.91973 -321.832054,31.28683 -328.307524,32.20752 -5.34909,0.76056 -9.46432,5.3848 59.85106,-67.25413 43.30771,-45.38424 71.99609,-76.6922 75.71542,-82.6291 5.19792,-8.29709 4.11693,-10.43977 -14.15013,-28.04779 -9.26514,-8.93085 -36.42067,-33.9165 -60.34564,-55.52364 -51.78437,-46.76756 -80.23683,-73.0568 -79.65879,-73.60238 0.57071,-0.53867 65.12219,3.60863 191.13585,12.28009 57.75,3.97399 116.89285,7.57408 131.42857,8.00019 l 26.42857,0.77476 21.6457,-10.76773 c 11.905129,-5.92225 64.6194143,-33.23988 117.142857,-60.70585 104.274503,-54.52804 122.953943,-64.0421 123.807433,-63.05922 0.31118,0.35836 6.40938,15.43728 13.55154,33.50871 45.7833,115.84307 55.24664,138.17596 60.72747,143.31297 5.20641,4.87982 22.21256,9.30203 176.69643,45.94749 45.96428,10.90329 90.96428,21.58443 100,23.73586 9.03571,2.15141 16.93618,4.34355 17.55658,4.87141 1.18843,1.01113 -6.28664,3.16103 -126.24617,36.30953 -128.60207,35.53671 -155.23155,43.90087 -159.2382,50.01579 -3.63145,5.54228 -7.61654,19.02285 -25.78837,87.23552 -19.18256,72.0067 -23.17874,86.11639 -24.6379,86.9914 -0.51241,0.30728 -3.96667,-0.63991 -7.67613,-2.10485 z"
       id="path4574"
       inkscape:connector-curvature="0"
       transform="scale(0.26458333)" />
    <path
       style="fill:#ffffff;stroke:#ffd600;stroke-width:1.42857146;stroke-opacity:1"
       d="M 192.35271,739.98782 C 179.44473,733.84156 -64.617837,623.49708 -71.219509,620.82273 l -7.857928,-3.18327 -97.142073,9.44832 c -53.42814,5.19657 -129.83506,12.6753 -169.79315,16.6194 -39.9581,3.9441 -73.7081,6.96404 -75,6.71097 -2.53675,-0.49692 -4.06469,1.19027 59.87905,-66.11976 47.12333,-49.60411 71.7492,-76.7933 74.96959,-82.7732 3.78275,-7.02416 1.48115,-11.02088 -16.25969,-28.23494 C -314.91622,461.16868 -417.16472,367.31774 -435.40561,351.23 l -5.09883,-4.49695 9.28572,0.63891 c 88.33976,6.07829 274.18765,17.99244 301.43188,19.32389 l 35.857631,1.75241 15.283815,-7.58411 c 8.4061,-4.17126 47.105243,-24.14195 85.9980998,-44.37931 38.8928572,-20.23736 88.8013712,-46.2067 110.9078042,-57.70964 22.10644,-11.50294 42.45845,-21.86079 45.22672,-23.01744 l 5.0332,-2.10301 25.2596,63.17896 c 33.1651,82.95208 41.49663,102.57077 46.48133,109.45194 6.26092,8.64296 9.32707,9.48921 187.09135,51.63756 56.96428,13.50637 104.09462,25.03931 104.7341,25.62878 1.17835,1.0862 -14.01015,5.48017 -143.30553,41.45767 -87.7795,24.42537 -116.96416,33.28882 -128.80647,39.11879 -8.28358,4.07801 -9.27233,5.06106 -11.66595,11.59851 -3.5811,9.78076 -11.01308,36.14475 -27.98861,99.28572 -7.9215,29.46428 -15.2723,56.46428 -16.33512,60 -2.16732,7.21013 -4.68091,8.28517 -11.63242,4.97514 z"
       id="path4576"
       inkscape:connector-curvature="0"
       transform="scale(0.26458333)" />
    <path
       style="fill:#ffffff;stroke:#ffd600;stroke-width:1.42857146;stroke-opacity:1"
       d="m 141.63842,715.58963 c -77.314786,-35.18698 -208.2188,-94.17311 -215.1216,-96.93507 -5.5628,-2.22578 -11.344757,-1.77157 -152.82996,12.00599 -80.87664,7.8756 -154.11987,14.97727 -162.76273,15.78147 -8.64285,0.8042 -19.2097,1.83719 -23.48188,2.29551 l -7.7676,0.83332 4.76976,-5.49337 c 2.62337,-3.02136 20.26164,-21.88746 39.19617,-41.92467 52.73207,-55.80303 70.87108,-75.34432 82.04057,-88.38283 9.07018,-10.58795 10.24298,-12.62302 10.24298,-17.77386 0,-5.54706 -0.81171,-6.61787 -17.5,-23.086 -14.91459,-14.71784 -95.49111,-89.09289 -125.54433,-115.88198 -5.2101,-4.64422 -9.38867,-8.51892 -9.28572,-8.61044 0.10296,-0.0915 32.33005,1.98006 71.61577,4.60353 98.10827,6.55158 225.66943,14.53635 250.92237,15.70665 l 20.922371,0.9696 31.220486,-16.07265 c 17.171272,-8.83996 74.999243,-38.82261 128.506615,-66.62812 53.507388,-27.8055 98.227988,-50.55546 99.379118,-50.55546 1.3888,0 5.86885,9.4928 13.31552,28.21428 25.27783,63.55029 49.55398,122.34442 54.93555,133.04785 3.1468,6.25867 7.1851,12.41058 8.974,13.6709 7.14565,5.0343 33.58774,11.99291 160.51777,42.24258 75.72683,18.04705 106.39971,25.51507 118.44906,28.83919 l 5.71428,1.57643 -8.57143,2.69837 c -4.71428,1.48411 -34.92857,10.09646 -67.14285,19.13856 -193.90862,54.42741 -198.2411,55.83782 -203.56249,66.2686 -3.21504,6.302 -9.28411,27.29607 -29.946,103.58895 -17.16111,63.36643 -17.68213,65.02603 -20.38946,64.94696 -0.99898,-0.0291 -26.56634,-11.31711 -56.81634,-25.08429 z"
       id="path4578"
       inkscape:connector-curvature="0"
       transform="scale(0.26458333)" />
    <path
       style="fill:#ffffff;stroke:#ffd600;stroke-width:1.8897638;stroke-opacity:1;stroke-miterlimit:4;stroke-dasharray:none"
       d="M 127.35271,707.72313 C 12.93432,655.84593 -67.320123,619.82316 -73.059309,617.76676 c -6.82,-2.44365 -16.958128,-1.62237 -203.796631,16.50952 -76.56474,7.43028 -139.36958,13.34865 -139.5663,13.15193 -0.19672,-0.19672 22.91145,-25.13825 51.35149,-55.4256 87.72407,-93.42218 86.13184,-91.38918 80.34301,-102.58352 -2.8971,-5.60238 -55.50815,-55.38858 -127.56554,-120.71617 -11.19445,-10.14895 -20.19293,-18.58528 -19.99663,-18.74741 0.19629,-0.16213 7.74976,0.25227 16.78547,0.92088 30.01598,2.22109 237.18077,15.46685 280.2101,17.91615 l 42.352974,2.4108 89.7898861,-46.52467 C 46.232963,299.09011 104.44742,269.05167 126.21398,257.9266 l 39.57555,-20.22741 3.57742,7.05969 c 1.96758,3.88283 8.68178,19.83194 14.92044,35.44246 34.99837,87.5737 51.9089,126.31485 57.244,131.14305 5.50894,4.98552 38.99886,14.05724 147.96417,40.08044 76.54472,18.28048 133.80926,32.40158 133.30435,32.87205 -0.24596,0.22917 -36.12578,10.50334 -79.73292,22.8315 -181.18627,51.22304 -190.11937,54.12343 -194.80471,63.24885 -3.28689,6.40173 -8.20825,23.13722 -28.0178,95.27678 -18.34145,66.79318 -20.4713,73.7306 -22.58489,73.56378 -0.56164,-0.0443 -32.19974,-14.21691 -70.30688,-31.49466 z"
       id="path4580"
       inkscape:connector-curvature="0"
       transform="scale(0.26458333)" />
    <path
       style="fill:#ffffff;stroke:#ffd600;stroke-width:2.69966269;stroke-miterlimit:4;stroke-dasharray:none;stroke-opacity:1"
       d="M 102.35271,694.80971 C 50.495563,671.32679 -10.254437,643.92653 -32.647294,633.92023 l -40.714286,-18.19327 -14.285714,0.22683 c -15.110596,0.23994 -63.147726,4.56774 -225.714286,20.33526 -55,5.33451 -100.17331,9.57417 -100.38514,9.42147 -0.21183,-0.15271 5.89531,-6.6888 13.57143,-14.52463 24.56574,-25.07691 101.37661,-107.96408 109.64253,-118.31607 12.56198,-15.73224 12.37597,-19.16604 -1.84128,-33.9897 -11.29329,-11.77499 -59.78184,-57.32639 -103.7217,-97.43887 -26.85035,-24.51156 -30.79801,-28.63174 -27.78176,-28.99589 1.93372,-0.23345 33.05515,1.52885 69.15874,3.91623 104.89582,6.93633 248.58261,15.79394 256.206709,15.79394 6.386,0 14.064871,-3.65162 86.792442,-41.27338 C 32.16302,308.1818 89.924134,278.32533 116.63842,264.53444 l 48.57143,-25.07433 4.03677,8.84771 c 2.22021,4.86624 12.92304,30.70486 23.78406,57.41914 30.99925,76.2473 41.44161,99.58379 47.41083,105.9533 5.50891,5.87836 19.74527,9.67415 217.51945,57.99645 l 59.89396,14.63392 -104.89396,29.84915 c -110.63234,31.48208 -148.37068,43.04671 -157.75111,48.34165 -9.53337,5.38128 -9.06553,4.00913 -42.89272,125.80236 -6.94042,24.98869 -13.3074,46.28182 -14.14882,47.31804 -1.22049,1.50305 -20.59768,-6.75055 -95.8156,-40.81212 z"
       id="path4582"
       inkscape:connector-curvature="0"
       transform="scale(0.26458333)" />
    <path
       style="fill:#ffffff;stroke:#ffd600;stroke-width:2.69966269;stroke-miterlimit:4;stroke-dasharray:none;stroke-opacity:1"
       d="M 185.05461,729.37842 C 173.97139,724.87513 121.18692,701.23266 3.0669915,647.86513 l -76.4285715,-34.53104 -17.857143,0.91054 c -19.854097,1.01238 -94.270227,7.76279 -228.472357,20.7251 -49.05266,4.7379 -89.87408,8.56919 -90.71429,8.51396 -0.8402,-0.0553 -0.48897,-0.53736 0.78052,-1.07143 3.40344,-1.43178 74.19487,-76.42454 114.01376,-120.78025 10.32479,-11.50116 15.82094,-20.55309 15.82094,-26.05645 0,-6.8756 -6.85691,-14.58028 -44.39838,-49.88773 -35.88092,-33.74572 -86.05198,-80.35736 -93.30835,-86.68852 l -4.43613,-3.87052 8.02623,-0.058 c 4.41443,-0.0319 63.23586,3.45771 130.71429,7.75476 67.47842,4.29705 137.22324,8.59921 154.98848,9.56035 32.069173,1.73501 32.360659,1.72464 40.714287,-1.44836 4.627614,-1.75773 62.413857,-31.07802 128.413857,-65.15619 65.999996,-34.07817 120.831556,-62.17432 121.847896,-62.43589 2.1259,-0.54714 4.01938,3.63024 26.98063,59.52441 37.42162,91.0948 45.47593,108.17563 53.11497,112.64116 8.60358,5.02937 40.29116,13.27424 224.84016,58.50174 l 42.49794,10.41499 -76.78365,21.87228 c -104.8876,29.87786 -165.0661,48.08792 -175.72273,53.17386 -6.90642,3.29613 -9.54217,5.46724 -11.58844,9.54554 -4.15646,8.28406 -10.50248,28.71592 -24.49049,78.85043 -10.66267,38.21617 -18.2941,64.99286 -23.71631,83.21429 -0.94485,3.17512 -0.78486,3.19637 -12.8495,-1.70569 z"
       id="path4584"
       inkscape:connector-curvature="0"
       transform="scale(0.26458333)" />
    <path
       style="fill:#ffffff;stroke:#ffd600;stroke-width:2.69966269;stroke-miterlimit:4;stroke-dasharray:none;stroke-opacity:1"
       d="m 183.78128,726.82306 c -4.71429,-2.06278 -57.10715,-25.5735 -116.428574,-52.24604 -59.3214288,-26.67253 -115.25,-51.79339 -124.285715,-55.82411 l -16.428571,-7.3286 -17.142857,0.97738 c -22.277443,1.27012 -30.801643,2.0304 -182.535933,16.28059 -70.53762,6.62458 -128.95669,12.04468 -129.82015,12.04468 -0.86346,0 9.61027,-11.73214 23.27497,-26.07143 60.73842,-63.73694 91.52741,-97.82722 97.08969,-107.5 7.45678,-12.9673 5.70504,-17.63837 -14.00624,-37.34788 -11.45009,-11.44906 -81.71172,-77.4605 -109.53734,-102.9113 l -11.21647,-10.25919 10.5186,0.68001 c 91.38971,5.90826 292.90384,17.69551 302.52146,17.69551 h 12.729284 l 26.205343,-13.00255 c 22.108629,-10.96983 151.322,-77.02813 210.842413,-107.78985 15.97446,-8.25602 17.61376,-8.81805 18.8705,-6.4698 0.75697,1.41442 13.53524,31.75204 28.39616,67.41693 30.55766,73.33574 39.72818,92.95828 46.3569,99.19177 3.51627,3.3066 8.89128,5.60115 22.46644,9.59071 15.18734,4.46336 157.92112,40.4119 220.2918,55.4821 10.77464,2.6034 19.39914,4.92459 19.16556,5.15819 -0.2336,0.2336 -29.62066,8.81261 -65.30457,19.0645 -161.89642,46.51234 -182.75869,53.34368 -189.6459,62.09934 -4.12492,5.24399 -9.12247,21.03909 -30.7273,97.1158 -12.99322,45.75273 -19.70655,67.2322 -21.0729,67.42331 -1.10285,0.15425 -5.86232,-1.40728 -10.5766,-3.47007 z"
       id="path4586"
       inkscape:connector-curvature="0"
       transform="scale(0.26458333)" />
    <path
       style="fill:#ffffff;stroke:#ffd600;stroke-width:2.69966269;stroke-miterlimit:4;stroke-dasharray:none;stroke-opacity:1"
       d="M 188.06699,726.51706 C 185.60452,725.50726 -4.5860085,640.18115 -55.440909,617.27092 l -17.7936,-8.01606 -21.492114,1.45545 c -11.820657,0.8005 -24.706387,1.78898 -28.634957,2.19665 -36.12936,3.7491 -270.554,24.97135 -272.37343,24.65772 -1.63468,-0.2818 5.18401,-8.41287 21.90701,-26.12343 83.87518,-88.82833 96.89499,-104.39992 96.89499,-115.88563 0,-9.39313 -11.92654,-22.12384 -81.42857,-86.91909 -18.46429,-17.21385 -38.0288,-35.457 -43.47671,-40.54033 l -9.90528,-9.2424 14.191,0.95006 c 23.82662,1.59515 175.36532,10.68686 229.19099,13.75053 27.89286,1.58762 57.09244,2.88665 64.88796,2.88672 l 14.173669,1.4e-4 83.6834711,-42.70252 C 40.409434,310.25234 97.07052,281.33298 120.29706,269.47349 l 42.23006,-21.56272 24.13193,57.47952 c 40.54804,96.5809 46.18281,107.99813 56.0197,113.50792 7.78483,4.36038 20.53298,7.80288 141.81681,38.29617 60.10715,15.11218 108.32143,27.84243 107.14286,28.28944 -1.17857,0.447 -35.89286,10.53007 -77.14286,22.40681 -120.64951,34.73755 -152.74948,44.93643 -164.43113,52.24348 -3.0712,1.92107 -6.32914,5.73678 -8.08182,9.46547 -3.36228,7.15294 -11.44686,33.44937 -26.0398,84.69881 -14.70782,51.65282 -21.71336,73.58389 -23.47235,73.48087 -0.85048,-0.0498 -2.83204,-0.61778 -4.40347,-1.2622 z"
       id="path4588"
       inkscape:connector-curvature="0"
       transform="scale(0.26458333)" />
  </g>
</svg>
